<svg id="Layer_1" data-name="Layer 1" xmlns="http://www.w3.org/2000/svg" viewBox="0 0 100 100"><defs><style>.cls-1{fill:#333;}</style></defs><title>i-gram-white</title><path class="cls-1" d="M71.9,9A19.08,19.08,0,0,1,91,28.1V71.9A19.08,19.08,0,0,1,71.9,91H28.1A19.08,19.08,0,0,1,9,71.9V28.1A19.08,19.08,0,0,1,28.1,9H71.9m0-9H28.1A28.1,28.1,0,0,0,0,28.1V71.9A28.1,28.1,0,0,0,28.1,100H71.9A28.1,28.1,0,0,0,100,71.9V28.1A28.1,28.1,0,0,0,71.9,0Z"/><path class="cls-1" d="M50,33.55A16.45,16.45,0,1,1,33.55,50,16.47,16.47,0,0,1,50,33.55m0-9A25.49,25.49,0,1,0,75.49,50,25.49,25.49,0,0,0,50,24.51Z"/><path class="cls-1" d="M76.65,29.42a6.29,6.29,0,0,1-6.1-6.3,6.13,6.13,0,0,1,6.23-5.86,6,6,0,0,1,5.93,6.12A6.14,6.14,0,0,1,76.65,29.42Z"/></svg>
