<svg id="Layer_1" data-name="Layer 1" xmlns="http://www.w3.org/2000/svg" viewBox="0 0 100 100"><defs><style>.cls-1{fill:#333;}</style></defs><title>tweet-white</title><path class="cls-1" d="M50,31.1C47.16,8.34,75-.19,85.85,16.76c7.61-4,9.29-5.11,10.82-5.71-1.95,7.69-7.13,12.14-8.89,13.06L100,20.16c-4.08,8.75-9.95,11-9.95,11C92.31,68.79,53.9,111.21,0,83c18.84,1.2,29.06-8.07,29.06-8.07C17.9,75.21,9.55,64.82,9.85,61.12c5.64,1.71,13,2.45,16.22.27-19-6.25-22.77-18-23-23.3a40.27,40.27,0,0,0,9.4,3c-13.54-8.92-9.88-22-6.36-26.62C19.81,32.27,50,31.1,50,31.1Z"/></svg>
