<svg id="Layer_1" data-name="Layer 1" xmlns="http://www.w3.org/2000/svg" viewBox="0 0 100 100"><title>wildLogo-black</title><polygon points="16.7 33.53 16.7 33.68 3.47 46.95 3.47 33.53 16.7 33.53"/><path d="M96.53,36.93V72.67A28.48,28.48,0,0,1,91.06,90a29.94,29.94,0,0,1-3.22,3.7,23.77,23.77,0,0,1-5.59,3.69h0A28.44,28.44,0,0,1,69.94,100Q57.45,100,50,91.6,42.73,100,29.77,100a28,28,0,0,1-11.62-2.29h0A22.87,22.87,0,0,1,8.85,90h0a31.28,31.28,0,0,1-2.77-4.76A29.25,29.25,0,0,1,3.47,73.53V53l.22,0L10.28,58l5-8.06,1.45.69V73.13a14.85,14.85,0,0,0,5,11.31,14.53,14.53,0,0,0,8.58,2.32q8.58,0,11.64-7a17.55,17.55,0,0,0,1.43-6.37V27.82l.09,0L50,34.69l5.56-9,1.67.37-.07,47.76a16.15,16.15,0,0,0,3.35,9.49q3.18,3.46,9.55,3.46,9.77,0,12.38-8.86a16.3,16.3,0,0,0,.86-5.51V36.25L89.72,41l3.72-5.79L96.31,37Z"/><polygon points="57.27 0 57.26 8.77 50 1.47 43.3 14.58 43.3 0 57.27 0"/><polygon points="96.53 16.94 96.53 28.74 90.69 22.53 83.3 27.98 83.3 16.94 96.53 16.94"/></svg>